<?xml version="1.0" encoding="UTF-8" standalone="no"?>
<!DOCTYPE svg PUBLIC "-//W3C//DTD SVG 1.1//EN"
 "http://www.w3.org/Graphics/SVG/1.1/DTD/svg11.dtd">
<!-- Generated by graphviz version 2.40.1 (20161225.0304)
 -->
<!-- Title: dependencies Pages: 1 -->
<svg width="847pt" height="284pt"
 viewBox="0.00 0.00 847.00 284.00" xmlns="http://www.w3.org/2000/svg" xmlns:xlink="http://www.w3.org/1999/xlink">
<g id="graph0" class="graph" transform="scale(1 1) rotate(0) translate(4 280)">
<title>dependencies</title>
<polygon fill="#ffffff" stroke="transparent" points="-4,4 -4,-280 843,-280 843,4 -4,4"/>
<text text-anchor="start" x="398.5091" y="-42.4" font-family="sans-serif" font-weight="bold" font-size="14.00" fill="#000000">Legend</text>
<polygon fill="#ffffb3" stroke="transparent" points="185.5,-10 185.5,-30 205.5,-30 205.5,-10 185.5,-10"/>
<text text-anchor="start" x="209.129" y="-15.4" font-family="sans-serif" font-size="14.00" fill="#000000"> &#160;Declarations</text>
<polygon fill="#8dd3c7" stroke="transparent" points="298.5,-10 298.5,-30 318.5,-30 318.5,-10 298.5,-10"/>
<text text-anchor="start" x="322.2251" y="-15.4" font-family="sans-serif" font-size="14.00" fill="#000000"> &#160;Module</text>
<polygon fill="#80b1d3" stroke="transparent" points="384.5,-10 384.5,-30 404.5,-30 404.5,-10 384.5,-10"/>
<text text-anchor="start" x="408.2812" y="-15.4" font-family="sans-serif" font-size="14.00" fill="#000000"> &#160;Bootstrap</text>
<polygon fill="#fdb462" stroke="transparent" points="481.5,-10 481.5,-30 501.5,-30 501.5,-10 481.5,-10"/>
<text text-anchor="start" x="505.1732" y="-15.4" font-family="sans-serif" font-size="14.00" fill="#000000"> &#160;Providers</text>
<polygon fill="#fb8072" stroke="transparent" points="577.5,-10 577.5,-30 597.5,-30 597.5,-10 577.5,-10"/>
<text text-anchor="start" x="601.2258" y="-15.4" font-family="sans-serif" font-size="14.00" fill="#000000"> &#160;Exports</text>
<g id="clust1" class="cluster">
<title>cluster_AppModule</title>
<polygon fill="none" stroke="#000000" stroke-dasharray="1,5" points="8,-70 8,-268 831,-268 831,-70 8,-70"/>
</g>
<g id="clust2" class="cluster">
<title>cluster_AppModule_declarations</title>
<polygon fill="none" stroke="#000000" points="701,-78 701,-130 823,-130 823,-78 701,-78"/>
</g>
<g id="clust4" class="cluster">
<title>cluster_AppModule_imports</title>
<polygon fill="none" stroke="#000000" points="417,-78 417,-130 693,-130 693,-78 417,-78"/>
</g>
<g id="clust6" class="cluster">
<title>cluster_AppModule_bootstrap</title>
<polygon fill="none" stroke="#000000" points="350,-208 350,-260 474,-260 474,-208 350,-208"/>
</g>
<g id="clust7" class="cluster">
<title>cluster_AppModule_providers</title>
<polygon fill="none" stroke="#000000" points="16,-78 16,-130 409,-130 409,-78 16,-78"/>
</g>
<!-- AppComponent -->
<g id="node1" class="node">
<title>AppComponent</title>
<polygon fill="#ffffb3" stroke="#000000" points="814.9399,-122 709.0601,-122 709.0601,-86 814.9399,-86 814.9399,-122"/>
<text text-anchor="middle" x="762" y="-99.8" font-family="Times,serif" font-size="14.00" fill="#000000">AppComponent</text>
</g>
<!-- AppModule -->
<g id="node2" class="node">
<title>AppModule</title>
<polygon fill="#8dd3c7" stroke="#000000" points="453.6571,-187 450.6571,-191 429.6571,-191 426.6571,-187 370.3429,-187 370.3429,-151 453.6571,-151 453.6571,-187"/>
<text text-anchor="middle" x="412" y="-164.8" font-family="Times,serif" font-size="14.00" fill="#000000">AppModule</text>
</g>
<!-- AppComponent&#45;&gt;AppModule -->
<g id="edge1" class="edge">
<title>AppComponent&#45;&gt;AppModule</title>
<path fill="none" stroke="#000000" d="M762,-122.2843C762,-143.3211 762,-175 762,-175 762,-175 463.8705,-175 463.8705,-175"/>
<polygon fill="#000000" stroke="#000000" points="463.8706,-171.5001 453.8705,-175 463.8705,-178.5001 463.8706,-171.5001"/>
</g>
<!-- AppComponent  -->
<g id="node5" class="node">
<title>AppComponent </title>
<polygon fill="#80b1d3" stroke="#000000" points="466.439,-252 357.561,-252 357.561,-216 466.439,-216 466.439,-252"/>
<text text-anchor="middle" x="412" y="-229.8" font-family="Times,serif" font-size="14.00" fill="#000000">AppComponent </text>
</g>
<!-- AppModule&#45;&gt;AppComponent  -->
<g id="edge4" class="edge">
<title>AppModule&#45;&gt;AppComponent </title>
<path fill="none" stroke="#000000" stroke-dasharray="1,5" d="M412,-187.1061C412,-187.1061 412,-205.991 412,-205.991"/>
<polygon fill="#000000" stroke="#000000" points="408.5001,-205.9909 412,-215.991 415.5001,-205.991 408.5001,-205.9909"/>
</g>
<!-- AppRoutingModule -->
<g id="node3" class="node">
<title>AppRoutingModule</title>
<polygon fill="#8dd3c7" stroke="#000000" points="685.2744,-122 682.2744,-126 661.2744,-126 658.2744,-122 556.7256,-122 556.7256,-86 685.2744,-86 685.2744,-122"/>
<text text-anchor="middle" x="621" y="-99.8" font-family="Times,serif" font-size="14.00" fill="#000000">AppRoutingModule</text>
</g>
<!-- AppRoutingModule&#45;&gt;AppModule -->
<g id="edge2" class="edge">
<title>AppRoutingModule&#45;&gt;AppModule</title>
<path fill="none" stroke="#000000" d="M621,-122.0225C621,-139.3734 621,-163 621,-163 621,-163 463.792,-163 463.792,-163"/>
<polygon fill="#000000" stroke="#000000" points="463.792,-159.5001 453.792,-163 463.7919,-166.5001 463.792,-159.5001"/>
</g>
<!-- GraphQLModule -->
<g id="node4" class="node">
<title>GraphQLModule</title>
<polygon fill="#8dd3c7" stroke="#000000" points="538.691,-122 535.691,-126 514.691,-126 511.691,-122 425.309,-122 425.309,-86 538.691,-86 538.691,-122"/>
<text text-anchor="middle" x="482" y="-99.8" font-family="Times,serif" font-size="14.00" fill="#000000">GraphQLModule</text>
</g>
<!-- GraphQLModule&#45;&gt;AppModule -->
<g id="edge3" class="edge">
<title>GraphQLModule&#45;&gt;AppModule</title>
<path fill="none" stroke="#000000" d="M439.6164,-122.1061C439.6164,-122.1061 439.6164,-140.991 439.6164,-140.991"/>
<polygon fill="#000000" stroke="#000000" points="436.1165,-140.9909 439.6164,-150.991 443.1165,-140.991 436.1165,-140.9909"/>
</g>
<!-- AuthService -->
<g id="node6" class="node">
<title>AuthService</title>
<ellipse fill="#fdb462" stroke="#000000" cx="342" cy="-104" rx="59.1083" ry="18"/>
<text text-anchor="middle" x="342" y="-99.8" font-family="Times,serif" font-size="14.00" fill="#000000">AuthService</text>
</g>
<!-- AuthService&#45;&gt;AppModule -->
<g id="edge5" class="edge">
<title>AuthService&#45;&gt;AppModule</title>
<path fill="none" stroke="#000000" d="M385.7378,-116.226C385.7378,-116.226 385.7378,-140.683 385.7378,-140.683"/>
<polygon fill="#000000" stroke="#000000" points="382.2379,-140.683 385.7378,-150.683 389.2379,-140.683 382.2379,-140.683"/>
</g>
<!-- BillService -->
<g id="node7" class="node">
<title>BillService</title>
<ellipse fill="#fdb462" stroke="#000000" cx="210" cy="-104" rx="54.4662" ry="18"/>
<text text-anchor="middle" x="210" y="-99.8" font-family="Times,serif" font-size="14.00" fill="#000000">BillService</text>
</g>
<!-- BillService&#45;&gt;AppModule -->
<g id="edge6" class="edge">
<title>BillService&#45;&gt;AppModule</title>
<path fill="none" stroke="#000000" d="M210,-122.0225C210,-139.3734 210,-163 210,-163 210,-163 360.1455,-163 360.1455,-163"/>
<polygon fill="#000000" stroke="#000000" points="360.1455,-166.5001 370.1455,-163 360.1454,-159.5001 360.1455,-166.5001"/>
</g>
<!-- CsrfService -->
<g id="node8" class="node">
<title>CsrfService</title>
<ellipse fill="#fdb462" stroke="#000000" cx="81" cy="-104" rx="56.7348" ry="18"/>
<text text-anchor="middle" x="81" y="-99.8" font-family="Times,serif" font-size="14.00" fill="#000000">CsrfService</text>
</g>
<!-- CsrfService&#45;&gt;AppModule -->
<g id="edge7" class="edge">
<title>CsrfService&#45;&gt;AppModule</title>
<path fill="none" stroke="#000000" d="M81,-122.2843C81,-143.3211 81,-175 81,-175 81,-175 360.0786,-175 360.0786,-175"/>
<polygon fill="#000000" stroke="#000000" points="360.0787,-178.5001 370.0786,-175 360.0786,-171.5001 360.0787,-178.5001"/>
</g>
</g>
</svg>
