<?xml version="1.0" encoding="UTF-8" standalone="no"?>
<!DOCTYPE svg PUBLIC "-//W3C//DTD SVG 1.1//EN"
 "http://www.w3.org/Graphics/SVG/1.1/DTD/svg11.dtd">
<!-- Generated by graphviz version 2.40.1 (20161225.0304)
 -->
<!-- Title: dependencies Pages: 1 -->
<svg width="1614pt" height="211pt"
 viewBox="0.00 0.00 1614.00 211.00" xmlns="http://www.w3.org/2000/svg" xmlns:xlink="http://www.w3.org/1999/xlink">
<g id="graph0" class="graph" transform="scale(1 1) rotate(0) translate(4 207)">
<title>dependencies</title>
<polygon fill="#ffffff" stroke="transparent" points="-4,4 -4,-207 1610,-207 1610,4 -4,4"/>
<text text-anchor="start" x="782.0091" y="-42.4" font-family="sans-serif" font-weight="bold" font-size="14.00" fill="#000000">Legend</text>
<polygon fill="#ffffb3" stroke="transparent" points="569,-10 569,-30 589,-30 589,-10 569,-10"/>
<text text-anchor="start" x="592.629" y="-15.4" font-family="sans-serif" font-size="14.00" fill="#000000"> &#160;Declarations</text>
<polygon fill="#8dd3c7" stroke="transparent" points="682,-10 682,-30 702,-30 702,-10 682,-10"/>
<text text-anchor="start" x="705.7251" y="-15.4" font-family="sans-serif" font-size="14.00" fill="#000000"> &#160;Module</text>
<polygon fill="#80b1d3" stroke="transparent" points="768,-10 768,-30 788,-30 788,-10 768,-10"/>
<text text-anchor="start" x="791.7812" y="-15.4" font-family="sans-serif" font-size="14.00" fill="#000000"> &#160;Bootstrap</text>
<polygon fill="#fdb462" stroke="transparent" points="865,-10 865,-30 885,-30 885,-10 865,-10"/>
<text text-anchor="start" x="888.6732" y="-15.4" font-family="sans-serif" font-size="14.00" fill="#000000"> &#160;Providers</text>
<polygon fill="#fb8072" stroke="transparent" points="961,-10 961,-30 981,-30 981,-10 961,-10"/>
<text text-anchor="start" x="984.7258" y="-15.4" font-family="sans-serif" font-size="14.00" fill="#000000"> &#160;Exports</text>
<g id="clust1" class="cluster">
<title>cluster_DashboardModule</title>
<polygon fill="none" stroke="#000000" stroke-dasharray="1,5" points="8,-70 8,-195 1598,-195 1598,-70 8,-70"/>
</g>
<g id="clust2" class="cluster">
<title>cluster_DashboardModule_declarations</title>
<polygon fill="none" stroke="#000000" points="761,-78 761,-130 1590,-130 1590,-78 761,-78"/>
</g>
<g id="clust8" class="cluster">
<title>cluster_DashboardModule_imports</title>
<polygon fill="none" stroke="#000000" points="571,-78 571,-130 753,-130 753,-78 571,-78"/>
</g>
<g id="clust11" class="cluster">
<title>cluster_DashboardModule_providers</title>
<polygon fill="none" stroke="#000000" points="16,-78 16,-130 563,-130 563,-78 16,-78"/>
</g>
<!-- ActionsCellComponent -->
<g id="node1" class="node">
<title>ActionsCellComponent</title>
<polygon fill="#ffffb3" stroke="#000000" points="1582.212,-122 1433.788,-122 1433.788,-86 1582.212,-86 1582.212,-122"/>
<text text-anchor="middle" x="1508" y="-99.8" font-family="Times,serif" font-size="14.00" fill="#000000">ActionsCellComponent</text>
</g>
<!-- DashboardModule -->
<g id="node6" class="node">
<title>DashboardModule</title>
<polygon fill="#8dd3c7" stroke="#000000" points="902.191,-187 899.191,-191 878.191,-191 875.191,-187 781.809,-187 781.809,-151 902.191,-151 902.191,-187"/>
<text text-anchor="middle" x="842" y="-164.8" font-family="Times,serif" font-size="14.00" fill="#000000">DashboardModule</text>
</g>
<!-- ActionsCellComponent&#45;&gt;DashboardModule -->
<g id="edge1" class="edge">
<title>ActionsCellComponent&#45;&gt;DashboardModule</title>
<path fill="none" stroke="#000000" d="M1508,-122.0109C1508,-144.4852 1508,-180 1508,-180 1508,-180 912.2777,-180 912.2777,-180"/>
<polygon fill="#000000" stroke="#000000" points="912.2777,-176.5001 902.2777,-180 912.2777,-183.5001 912.2777,-176.5001"/>
</g>
<!-- BilledCellComponent -->
<g id="node2" class="node">
<title>BilledCellComponent</title>
<polygon fill="#ffffb3" stroke="#000000" points="1415.3878,-122 1276.6122,-122 1276.6122,-86 1415.3878,-86 1415.3878,-122"/>
<text text-anchor="middle" x="1346" y="-99.8" font-family="Times,serif" font-size="14.00" fill="#000000">BilledCellComponent</text>
</g>
<!-- BilledCellComponent&#45;&gt;DashboardModule -->
<g id="edge2" class="edge">
<title>BilledCellComponent&#45;&gt;DashboardModule</title>
<path fill="none" stroke="#000000" d="M1346,-122.1289C1346,-142.5724 1346,-173 1346,-173 1346,-173 912.2936,-173 912.2936,-173"/>
<polygon fill="#000000" stroke="#000000" points="912.2936,-169.5001 902.2936,-173 912.2935,-176.5001 912.2936,-169.5001"/>
</g>
<!-- ConfirmDeleteComponent -->
<g id="node3" class="node">
<title>ConfirmDeleteComponent</title>
<polygon fill="#ffffb3" stroke="#000000" points="1258.8033,-122 1093.1967,-122 1093.1967,-86 1258.8033,-86 1258.8033,-122"/>
<text text-anchor="middle" x="1176" y="-99.8" font-family="Times,serif" font-size="14.00" fill="#000000">ConfirmDeleteComponent</text>
</g>
<!-- ConfirmDeleteComponent&#45;&gt;DashboardModule -->
<g id="edge3" class="edge">
<title>ConfirmDeleteComponent&#45;&gt;DashboardModule</title>
<path fill="none" stroke="#000000" d="M1176,-122.2667C1176,-140.5552 1176,-166 1176,-166 1176,-166 912.0983,-166 912.0983,-166"/>
<polygon fill="#000000" stroke="#000000" points="912.0983,-162.5001 902.0983,-166 912.0982,-169.5001 912.0983,-162.5001"/>
</g>
<!-- DashboardComponent -->
<g id="node4" class="node">
<title>DashboardComponent</title>
<polygon fill="#ffffb3" stroke="#000000" points="1074.9734,-122 933.0266,-122 933.0266,-86 1074.9734,-86 1074.9734,-122"/>
<text text-anchor="middle" x="1004" y="-99.8" font-family="Times,serif" font-size="14.00" fill="#000000">DashboardComponent</text>
</g>
<!-- DashboardComponent&#45;&gt;DashboardModule -->
<g id="edge4" class="edge">
<title>DashboardComponent&#45;&gt;DashboardModule</title>
<path fill="none" stroke="#000000" d="M1004,-122.0091C1004,-138.0494 1004,-159 1004,-159 1004,-159 912.3228,-159 912.3228,-159"/>
<polygon fill="#000000" stroke="#000000" points="912.3229,-155.5001 902.3228,-159 912.3228,-162.5001 912.3229,-155.5001"/>
</g>
<!-- PdfPreviewComponent -->
<g id="node5" class="node">
<title>PdfPreviewComponent</title>
<polygon fill="#ffffb3" stroke="#000000" points="915.1456,-122 768.8544,-122 768.8544,-86 915.1456,-86 915.1456,-122"/>
<text text-anchor="middle" x="842" y="-99.8" font-family="Times,serif" font-size="14.00" fill="#000000">PdfPreviewComponent</text>
</g>
<!-- PdfPreviewComponent&#45;&gt;DashboardModule -->
<g id="edge5" class="edge">
<title>PdfPreviewComponent&#45;&gt;DashboardModule</title>
<path fill="none" stroke="#000000" d="M842,-122.1061C842,-122.1061 842,-140.991 842,-140.991"/>
<polygon fill="#000000" stroke="#000000" points="838.5001,-140.9909 842,-150.991 845.5001,-140.991 838.5001,-140.9909"/>
</g>
<!-- DashboardRoutingModule -->
<g id="node7" class="node">
<title>DashboardRoutingModule</title>
<polygon fill="#8dd3c7" stroke="#000000" points="744.8089,-122 741.8089,-126 720.8089,-126 717.8089,-122 579.1911,-122 579.1911,-86 744.8089,-86 744.8089,-122"/>
<text text-anchor="middle" x="662" y="-99.8" font-family="Times,serif" font-size="14.00" fill="#000000">DashboardRoutingModule</text>
</g>
<!-- DashboardRoutingModule&#45;&gt;DashboardModule -->
<g id="edge6" class="edge">
<title>DashboardRoutingModule&#45;&gt;DashboardModule</title>
<path fill="none" stroke="#000000" d="M662,-122.0091C662,-138.0494 662,-159 662,-159 662,-159 771.8124,-159 771.8124,-159"/>
<polygon fill="#000000" stroke="#000000" points="771.8124,-162.5001 781.8124,-159 771.8123,-155.5001 771.8124,-162.5001"/>
</g>
<!-- BillPdfService -->
<g id="node8" class="node">
<title>BillPdfService</title>
<ellipse fill="#fdb462" stroke="#000000" cx="487" cy="-104" rx="67.7895" ry="18"/>
<text text-anchor="middle" x="487" y="-99.8" font-family="Times,serif" font-size="14.00" fill="#000000">BillPdfService</text>
</g>
<!-- BillPdfService&#45;&gt;DashboardModule -->
<g id="edge7" class="edge">
<title>BillPdfService&#45;&gt;DashboardModule</title>
<path fill="none" stroke="#000000" d="M487,-122.2667C487,-140.5552 487,-166 487,-166 487,-166 771.7791,-166 771.7791,-166"/>
<polygon fill="#000000" stroke="#000000" points="771.7791,-169.5001 781.7791,-166 771.7791,-162.5001 771.7791,-169.5001"/>
</g>
<!-- MiscFunctionsService -->
<g id="node9" class="node">
<title>MiscFunctionsService</title>
<ellipse fill="#fdb462" stroke="#000000" cx="304" cy="-104" rx="97.2876" ry="18"/>
<text text-anchor="middle" x="304" y="-99.8" font-family="Times,serif" font-size="14.00" fill="#000000">MiscFunctionsService</text>
</g>
<!-- MiscFunctionsService&#45;&gt;DashboardModule -->
<g id="edge8" class="edge">
<title>MiscFunctionsService&#45;&gt;DashboardModule</title>
<path fill="none" stroke="#000000" d="M304,-122.1289C304,-142.5724 304,-173 304,-173 304,-173 771.8506,-173 771.8506,-173"/>
<polygon fill="#000000" stroke="#000000" points="771.8506,-176.5001 781.8506,-173 771.8505,-169.5001 771.8506,-176.5001"/>
</g>
<!-- ShowErrorService -->
<g id="node10" class="node">
<title>ShowErrorService</title>
<ellipse fill="#fdb462" stroke="#000000" cx="106" cy="-104" rx="82.2218" ry="18"/>
<text text-anchor="middle" x="106" y="-99.8" font-family="Times,serif" font-size="14.00" fill="#000000">ShowErrorService</text>
</g>
<!-- ShowErrorService&#45;&gt;DashboardModule -->
<g id="edge9" class="edge">
<title>ShowErrorService&#45;&gt;DashboardModule</title>
<path fill="none" stroke="#000000" d="M106,-122.0109C106,-144.4852 106,-180 106,-180 106,-180 771.77,-180 771.77,-180"/>
<polygon fill="#000000" stroke="#000000" points="771.7701,-183.5001 781.77,-180 771.77,-176.5001 771.7701,-183.5001"/>
</g>
</g>
</svg>
