<?xml version="1.0" encoding="UTF-8" standalone="no"?>
<!DOCTYPE svg PUBLIC "-//W3C//DTD SVG 1.1//EN"
 "http://www.w3.org/Graphics/SVG/1.1/DTD/svg11.dtd">
<!-- Generated by graphviz version 2.40.1 (20161225.0304)
 -->
<!-- Title: dependencies Pages: 1 -->
<svg width="1489pt" height="211pt"
 viewBox="0.00 0.00 1489.00 211.00" xmlns="http://www.w3.org/2000/svg" xmlns:xlink="http://www.w3.org/1999/xlink">
<g id="graph0" class="graph" transform="scale(1 1) rotate(0) translate(4 207)">
<title>dependencies</title>
<polygon fill="#ffffff" stroke="transparent" points="-4,4 -4,-207 1485,-207 1485,4 -4,4"/>
<text text-anchor="start" x="719.5091" y="-42.4" font-family="sans-serif" font-weight="bold" font-size="14.00" fill="#000000">Legend</text>
<polygon fill="#ffffb3" stroke="transparent" points="506.5,-10 506.5,-30 526.5,-30 526.5,-10 506.5,-10"/>
<text text-anchor="start" x="530.129" y="-15.4" font-family="sans-serif" font-size="14.00" fill="#000000"> &#160;Declarations</text>
<polygon fill="#8dd3c7" stroke="transparent" points="619.5,-10 619.5,-30 639.5,-30 639.5,-10 619.5,-10"/>
<text text-anchor="start" x="643.2251" y="-15.4" font-family="sans-serif" font-size="14.00" fill="#000000"> &#160;Module</text>
<polygon fill="#80b1d3" stroke="transparent" points="705.5,-10 705.5,-30 725.5,-30 725.5,-10 705.5,-10"/>
<text text-anchor="start" x="729.2812" y="-15.4" font-family="sans-serif" font-size="14.00" fill="#000000"> &#160;Bootstrap</text>
<polygon fill="#fdb462" stroke="transparent" points="802.5,-10 802.5,-30 822.5,-30 822.5,-10 802.5,-10"/>
<text text-anchor="start" x="826.1732" y="-15.4" font-family="sans-serif" font-size="14.00" fill="#000000"> &#160;Providers</text>
<polygon fill="#fb8072" stroke="transparent" points="898.5,-10 898.5,-30 918.5,-30 918.5,-10 898.5,-10"/>
<text text-anchor="start" x="922.2258" y="-15.4" font-family="sans-serif" font-size="14.00" fill="#000000"> &#160;Exports</text>
<g id="clust1" class="cluster">
<title>cluster_AuthModule</title>
<polygon fill="none" stroke="#000000" stroke-dasharray="1,5" points="8,-70 8,-195 1473,-195 1473,-70 8,-70"/>
</g>
<g id="clust2" class="cluster">
<title>cluster_AuthModule_declarations</title>
<polygon fill="none" stroke="#000000" points="172,-78 172,-130 1465,-130 1465,-78 172,-78"/>
</g>
<g id="clust11" class="cluster">
<title>cluster_AuthModule_imports</title>
<polygon fill="none" stroke="#000000" points="16,-78 16,-130 164,-130 164,-78 16,-78"/>
</g>
<!-- ContactComponent -->
<g id="node1" class="node">
<title>ContactComponent</title>
<polygon fill="#ffffb3" stroke="#000000" points="1457.3795,-122 1332.6205,-122 1332.6205,-86 1457.3795,-86 1457.3795,-122"/>
<text text-anchor="middle" x="1395" y="-99.8" font-family="Times,serif" font-size="14.00" fill="#000000">ContactComponent</text>
</g>
<!-- AuthModule -->
<g id="node9" class="node">
<title>AuthModule</title>
<polygon fill="#8dd3c7" stroke="#000000" points="826.5482,-187 823.5482,-191 802.5482,-191 799.5482,-187 739.4518,-187 739.4518,-151 826.5482,-151 826.5482,-187"/>
<text text-anchor="middle" x="783" y="-164.8" font-family="Times,serif" font-size="14.00" fill="#000000">AuthModule</text>
</g>
<!-- ContactComponent&#45;&gt;AuthModule -->
<g id="edge1" class="edge">
<title>ContactComponent&#45;&gt;AuthModule</title>
<path fill="none" stroke="#000000" d="M1395,-122.0109C1395,-144.4852 1395,-180 1395,-180 1395,-180 837.0135,-180 837.0135,-180"/>
<polygon fill="#000000" stroke="#000000" points="837.0136,-176.5001 827.0135,-180 837.0135,-183.5001 837.0136,-176.5001"/>
</g>
<!-- CookiePolicyComponent -->
<g id="node2" class="node">
<title>CookiePolicyComponent</title>
<polygon fill="#ffffb3" stroke="#000000" points="1314.5532,-122 1157.4468,-122 1157.4468,-86 1314.5532,-86 1314.5532,-122"/>
<text text-anchor="middle" x="1236" y="-99.8" font-family="Times,serif" font-size="14.00" fill="#000000">CookiePolicyComponent</text>
</g>
<!-- CookiePolicyComponent&#45;&gt;AuthModule -->
<g id="edge2" class="edge">
<title>CookiePolicyComponent&#45;&gt;AuthModule</title>
<path fill="none" stroke="#000000" d="M1236,-122.1289C1236,-142.5724 1236,-173 1236,-173 1236,-173 836.8471,-173 836.8471,-173"/>
<polygon fill="#000000" stroke="#000000" points="836.8472,-169.5001 826.8471,-173 836.8471,-176.5001 836.8472,-169.5001"/>
</g>
<!-- DisclaimerComponent -->
<g id="node3" class="node">
<title>DisclaimerComponent</title>
<polygon fill="#ffffb3" stroke="#000000" points="1139.2506,-122 996.7494,-122 996.7494,-86 1139.2506,-86 1139.2506,-122"/>
<text text-anchor="middle" x="1068" y="-99.8" font-family="Times,serif" font-size="14.00" fill="#000000">DisclaimerComponent</text>
</g>
<!-- DisclaimerComponent&#45;&gt;AuthModule -->
<g id="edge3" class="edge">
<title>DisclaimerComponent&#45;&gt;AuthModule</title>
<path fill="none" stroke="#000000" d="M1068,-122.2667C1068,-140.5552 1068,-166 1068,-166 1068,-166 836.5956,-166 836.5956,-166"/>
<polygon fill="#000000" stroke="#000000" points="836.5956,-162.5001 826.5956,-166 836.5956,-169.5001 836.5956,-162.5001"/>
</g>
<!-- LoginComponent -->
<g id="node4" class="node">
<title>LoginComponent</title>
<polygon fill="#ffffb3" stroke="#000000" points="978.2758,-122 863.7242,-122 863.7242,-86 978.2758,-86 978.2758,-122"/>
<text text-anchor="middle" x="921" y="-99.8" font-family="Times,serif" font-size="14.00" fill="#000000">LoginComponent</text>
</g>
<!-- LoginComponent&#45;&gt;AuthModule -->
<g id="edge4" class="edge">
<title>LoginComponent&#45;&gt;AuthModule</title>
<path fill="none" stroke="#000000" d="M921,-122.0091C921,-138.0494 921,-159 921,-159 921,-159 836.6641,-159 836.6641,-159"/>
<polygon fill="#000000" stroke="#000000" points="836.6641,-155.5001 826.6641,-159 836.664,-162.5001 836.6641,-155.5001"/>
</g>
<!-- PoliciesComponent -->
<g id="node5" class="node">
<title>PoliciesComponent</title>
<polygon fill="#ffffb3" stroke="#000000" points="845.6611,-122 720.3389,-122 720.3389,-86 845.6611,-86 845.6611,-122"/>
<text text-anchor="middle" x="783" y="-99.8" font-family="Times,serif" font-size="14.00" fill="#000000">PoliciesComponent</text>
</g>
<!-- PoliciesComponent&#45;&gt;AuthModule -->
<g id="edge5" class="edge">
<title>PoliciesComponent&#45;&gt;AuthModule</title>
<path fill="none" stroke="#000000" d="M783,-122.1061C783,-122.1061 783,-140.991 783,-140.991"/>
<polygon fill="#000000" stroke="#000000" points="779.5001,-140.9909 783,-150.991 786.5001,-140.991 779.5001,-140.9909"/>
</g>
<!-- PrivacyPolicyComponent -->
<g id="node6" class="node">
<title>PrivacyPolicyComponent</title>
<polygon fill="#ffffb3" stroke="#000000" points="701.8738,-122 542.1262,-122 542.1262,-86 701.8738,-86 701.8738,-122"/>
<text text-anchor="middle" x="622" y="-99.8" font-family="Times,serif" font-size="14.00" fill="#000000">PrivacyPolicyComponent</text>
</g>
<!-- PrivacyPolicyComponent&#45;&gt;AuthModule -->
<g id="edge6" class="edge">
<title>PrivacyPolicyComponent&#45;&gt;AuthModule</title>
<path fill="none" stroke="#000000" d="M622,-122.0091C622,-138.0494 622,-159 622,-159 622,-159 729.4311,-159 729.4311,-159"/>
<polygon fill="#000000" stroke="#000000" points="729.4311,-162.5001 739.4311,-159 729.431,-155.5001 729.4311,-162.5001"/>
</g>
<!-- RegisterComponent -->
<g id="node7" class="node">
<title>RegisterComponent</title>
<polygon fill="#ffffb3" stroke="#000000" points="523.9846,-122 396.0154,-122 396.0154,-86 523.9846,-86 523.9846,-122"/>
<text text-anchor="middle" x="460" y="-99.8" font-family="Times,serif" font-size="14.00" fill="#000000">RegisterComponent</text>
</g>
<!-- RegisterComponent&#45;&gt;AuthModule -->
<g id="edge7" class="edge">
<title>RegisterComponent&#45;&gt;AuthModule</title>
<path fill="none" stroke="#000000" d="M460,-122.2667C460,-140.5552 460,-166 460,-166 460,-166 729.4388,-166 729.4388,-166"/>
<polygon fill="#000000" stroke="#000000" points="729.4388,-169.5001 739.4388,-166 729.4387,-162.5001 729.4388,-169.5001"/>
</g>
<!-- TermAndConditionsComponent -->
<g id="node8" class="node">
<title>TermAndConditionsComponent</title>
<polygon fill="#ffffb3" stroke="#000000" points="377.7105,-122 180.2895,-122 180.2895,-86 377.7105,-86 377.7105,-122"/>
<text text-anchor="middle" x="279" y="-99.8" font-family="Times,serif" font-size="14.00" fill="#000000">TermAndConditionsComponent</text>
</g>
<!-- TermAndConditionsComponent&#45;&gt;AuthModule -->
<g id="edge8" class="edge">
<title>TermAndConditionsComponent&#45;&gt;AuthModule</title>
<path fill="none" stroke="#000000" d="M279,-122.1289C279,-142.5724 279,-173 279,-173 279,-173 729.155,-173 729.155,-173"/>
<polygon fill="#000000" stroke="#000000" points="729.155,-176.5001 739.155,-173 729.1549,-169.5001 729.155,-176.5001"/>
</g>
<!-- AuthRoutingModule -->
<g id="node10" class="node">
<title>AuthRoutingModule</title>
<polygon fill="#8dd3c7" stroke="#000000" points="156.1652,-122 153.1652,-126 132.1652,-126 129.1652,-122 23.8348,-122 23.8348,-86 156.1652,-86 156.1652,-122"/>
<text text-anchor="middle" x="90" y="-99.8" font-family="Times,serif" font-size="14.00" fill="#000000">AuthRoutingModule</text>
</g>
<!-- AuthRoutingModule&#45;&gt;AuthModule -->
<g id="edge9" class="edge">
<title>AuthRoutingModule&#45;&gt;AuthModule</title>
<path fill="none" stroke="#000000" d="M90,-122.0109C90,-144.4852 90,-180 90,-180 90,-180 729.3872,-180 729.3872,-180"/>
<polygon fill="#000000" stroke="#000000" points="729.3873,-183.5001 739.3872,-180 729.3872,-176.5001 729.3873,-183.5001"/>
</g>
</g>
</svg>
